# xmcd
#
# Track frame offsets:
#	150
#	10442
#	19862
#	27212
#	36625
#	52097
#	64282
#	80000
#	93442
#	106182
#	113082
#	124617
#	149440
#	172490
#	190147
#	205105
#	215205
#
# Disc length: 3061 seconds
#
# Revision: 1
# Processed by: cddbd v1.4PL0 Copyright (c) Steve Scherf et al.
# Submitted via: audiograbber 1.81.03
#
DISCID=040bf311
DTITLE=Toni Bennett and The Count Basie Orchestra - Legendary performers
DYEAR=1900
DGENRE=
TTITLE0=Anything goes
TTITLE1=Chicago
TTITLE2=I guess I'll have to change my plans
TTITLE3=Jeepers creepers
TTITLE4=Poor little rich girl
TTITLE5=Are you havin' any fun
TTITLE6=Growing pains
TTITLE7=I've grown accustomed to her face
TTITLE8=Life is a song
TTITLE9=With plenty of money and you
TTITLE10=Red bank boogie
TTITLE11=One o'clock jump
TTITLE12=Every day I have the blues
TTITLE13=Lester leaps in
TTITLE14=Jumping at the woodside
TTITLE15=Basie boogie
TTITLE16=Stormy Monday blues
EXTD=
EXTT0=
EXTT1=
EXTT2=
EXTT3=
EXTT4=
EXTT5=
EXTT6=
EXTT7=
EXTT8=
EXTT9=
EXTT10=
EXTT11=
EXTT12=
EXTT13=
EXTT14=
EXTT15=
EXTT16=
PLAYORDER=
